<svg xmlns="http://www.w3.org/2000/svg" width="3520" height="758" viewBox="0 0 3520 758" version="1.1">
  <path
    d="M 235 1.961 C 207.784 7.790, 182.659 23.712, 165.506 46 C 150.869 65.019, 101.442 157.104, 78.284 208.500 C 36.407 301.437, 10.327 387.800, 2.336 460 C -0.029 481.367, -0.030 527.174, 2.334 545.965 C 9.932 606.356, 30.419 653.441, 64.500 688.837 C 76.952 701.769, 85.747 709.247, 98.612 717.839 C 127.837 737.358, 162.219 749.604, 204.500 755.554 C 219.469 757.660, 261.269 758.568, 276.500 757.118 C 328.659 752.152, 380.216 733.592, 425.500 703.480 C 489.494 660.927, 531.088 603.977, 544.714 540.256 C 547.264 528.328, 547.443 525.877, 547.471 502.500 C 547.497 480.485, 547.233 476.182, 545.260 466.459 C 540.472 442.865, 537.728 435.710, 516.503 391.500 C 496.830 350.522, 492.410 340.437, 486.968 324.111 C 478.723 299.378, 479.508 287.292, 489.810 280.349 C 494.895 276.922, 501.627 276, 521.549 276 L 540 276 540 278.871 C 540 280.450, 539.295 288.146, 538.434 295.972 C 537.572 303.798, 537.020 310.353, 537.206 310.540 C 537.393 310.726, 562.607 295.269, 593.239 276.192 C 635.887 249.631, 648.649 241.236, 647.717 240.358 C 645.664 238.424, 554.101 172.976, 552.690 172.434 C 551.675 172.045, 551.082 174.786, 550.142 184.213 C 549.469 190.971, 548.661 198.578, 548.348 201.118 L 547.777 205.736 516.139 206.299 C 482.532 206.896, 469.505 208.143, 451.250 212.509 C 402.072 224.273, 380.304 254.127, 386.305 301.578 C 388.041 315.306, 394.017 340.144, 401.324 364 C 428.814 453.757, 429.920 457.981, 430.655 476 C 432.138 512.314, 418.077 545.540, 389.794 572.557 C 364.444 596.773, 331.266 612.103, 292.394 617.561 C 278.353 619.532, 252.309 619.780, 240 618.060 C 186.079 610.521, 148.797 579.485, 131.523 527.755 C 127.584 515.957, 123.596 496.966, 122.019 482.500 C 120.422 467.834, 120.689 433.156, 122.539 415.088 C 133.328 309.720, 184.563 175.765, 273.224 21.118 C 280.654 8.159, 282.860 3.532, 281.896 2.936 C 276.595 -0.340, 248.475 -0.925, 235 1.961 M 1826 177.035 C 1811.257 179.653, 1798.302 189.718, 1791.805 203.603 C 1786.150 215.688, 1786.970 233.425, 1793.717 244.975 C 1797.661 251.727, 1806.156 259.495, 1813.348 262.928 C 1842.203 276.699, 1876.540 259.570, 1881.264 229.048 C 1886.117 197.697, 1858.105 171.332, 1826 177.035 M 3237.500 181.656 C 3224.514 183.200, 3217.443 184.524, 3210.524 186.705 C 3179.296 196.551, 3159.045 218.715, 3150.500 252.400 C 3147.242 265.246, 3146.004 274.964, 3145.299 293.250 L 3144.691 309 3118.846 309 L 3093 309 3093 341 L 3093 373 3119 373 L 3145 373 3145 499 L 3145 625 3183.500 625 L 3222 625 3222 499 L 3222 373 3293.500 373 L 3365 373 3365 459.928 C 3365 516.104, 3365.378 549.571, 3366.068 554.533 C 3370.967 589.759, 3388.621 613.321, 3417.218 622.804 C 3433.242 628.118, 3443.512 629.402, 3470 629.403 C 3490.367 629.405, 3512.581 628.008, 3518.250 626.371 C 3519.874 625.902, 3520 623.343, 3520 590.933 C 3520 571.720, 3519.662 556.004, 3519.250 556.008 C 3518.838 556.012, 3513.117 556.687, 3506.538 557.508 C 3491.484 559.386, 3480.452 559.379, 3471.517 557.486 C 3457.353 554.486, 3449.324 548.428, 3444.871 537.381 L 3442.500 531.500 3442.221 452.250 L 3441.942 373 3480.971 373 L 3520 373 3520 341 L 3520 309 3481 309 L 3442 309 3442 262.500 L 3442 216 3403.500 216 L 3365 216 3365 262.500 L 3365 309 3293.500 309 L 3222 309 3222.017 298.750 C 3222.057 275.280, 3229.434 260.229, 3244.253 253.385 L 3250.500 250.500 3286.750 250.203 L 3323 249.907 3323 215.453 L 3323 181 3281.750 181.150 C 3259.063 181.232, 3239.150 181.460, 3237.500 181.656 M 1953 262.500 L 1953 309 1926 309 L 1899 309 1899 341 L 1899 373 1926 373 L 1953 373 1953 456.539 C 1953 507.399, 1953.406 543.877, 1954.039 549.789 C 1956.698 574.652, 1963.918 591.775, 1977.566 605.581 C 1989.126 617.275, 2002.753 623.667, 2024.500 627.597 C 2032.203 628.988, 2039.783 629.411, 2057.500 629.434 C 2077.354 629.461, 2104.910 627.744, 2107.250 626.334 C 2107.662 626.085, 2108 610.108, 2108 590.830 L 2108 555.777 2104.750 556.353 C 2095.078 558.066, 2078.340 559.180, 2070 558.665 C 2048.682 557.350, 2037.563 550.234, 2032.238 534.500 C 2030.717 530.005, 2030.514 521.591, 2030.233 451.250 L 2029.920 373 2068.960 373 L 2108 373 2108 341 L 2108 309 2069 309 L 2030 309 2030 262.500 L 2030 216 1991.500 216 L 1953 216 1953 262.500 M 756 422.584 L 756 625.169 858.750 624.724 C 945.867 624.348, 963.136 624.038, 972.251 622.690 C 1033.835 613.578, 1071.874 584.420, 1083.727 537.237 C 1085.028 532.060, 1085.414 526.100, 1085.393 511.500 C 1085.362 489.343, 1083.999 482.537, 1076.579 467.500 C 1066.414 446.896, 1046.831 430.778, 1020.046 420.970 L 1012.591 418.241 1018.046 415.495 C 1032.828 408.054, 1048.657 393.925, 1056.278 381.369 C 1071.171 356.836, 1072.882 319.262, 1060.451 289.752 C 1044.584 252.086, 1004.183 227.008, 949.789 221.062 C 943.654 220.391, 906.197 220, 848.039 220 L 756 220 756 422.584 M 836 343.051 L 836 394.102 886.250 393.758 C 934.884 393.424, 936.736 393.341, 943.839 391.178 C 970.627 383.022, 984.133 366.709, 984.140 342.500 C 984.149 313.201, 965.063 296.530, 927.500 293.027 C 921.450 292.463, 898.388 292.001, 876.250 292.001 L 836 292 836 343.051 M 1245.500 303.631 C 1236.196 304.606, 1219.116 308.327, 1209.522 311.470 C 1155.028 329.321, 1115.518 374.034, 1102.798 432.251 C 1100.826 441.278, 1100.559 445.363, 1100.559 466.500 C 1100.559 493.342, 1101.710 501.288, 1108.588 521.928 C 1131.065 589.374, 1196.787 632.837, 1271.500 629.663 C 1306.530 628.175, 1334.665 618.975, 1362.794 599.808 C 1373.437 592.556, 1394.153 571.606, 1401.662 560.500 C 1413.424 543.105, 1422.722 521.393, 1427.074 501.159 C 1429.761 488.664, 1430.772 459.830, 1429.044 444.944 C 1420.843 374.281, 1368.010 318.776, 1296.262 305.444 C 1287.766 303.865, 1254.582 302.680, 1245.500 303.631 M 1617 304.589 C 1586.949 309.408, 1558.940 325.823, 1539.828 349.816 L 1534 357.131 1534 333.066 L 1534 309 1495.500 309 L 1457 309 1457 467 L 1457 625 1495.500 625 L 1534 625 1534 543.131 C 1534 454.959, 1534.110 452.778, 1539.325 437.500 C 1547.533 413.455, 1562.569 395.719, 1583.740 385.109 C 1600.956 376.481, 1625.794 376.946, 1643.308 386.225 C 1652.529 391.111, 1661.928 400.866, 1666.394 410.185 C 1673.147 424.277, 1672.963 420.982, 1672.983 528.250 L 1673 625 1711.500 625 L 1750 625 1749.996 514.250 C 1749.992 391.374, 1750.119 394.096, 1743.404 374 C 1731.353 337.936, 1705.574 314.323, 1669 305.847 C 1657.284 303.132, 1630.174 302.476, 1617 304.589 M 2253.500 303.691 C 2226.858 307.162, 2205.378 315.133, 2184.863 329.159 C 2151.695 351.836, 2128.373 389.845, 2121.035 433.181 C 2111.256 490.940, 2127.225 548.492, 2163.239 585.287 C 2193.880 616.593, 2233.642 631.773, 2279.420 629.641 C 2312.673 628.093, 2335.178 619.653, 2355.110 601.255 C 2358.539 598.090, 2363.293 592.863, 2365.673 589.640 L 2370 583.780 2370 604.390 L 2370 625 2408 625 L 2446 625 2446 467 L 2446 309 2408 309 L 2370 309 2369.989 328.750 L 2369.978 348.500 2367.279 345 C 2357.144 331.853, 2341.666 319.350, 2327.674 313.006 C 2319.326 309.221, 2305.118 305.520, 2293.500 304.103 C 2285.071 303.075, 2260.191 302.819, 2253.500 303.691 M 2584 304.529 C 2565.441 306.849, 2551.609 310.494, 2538.230 316.591 C 2516.274 326.597, 2499.259 343.404, 2491.408 362.842 C 2486.220 375.687, 2485.499 380.284, 2485.509 400.500 C 2485.517 417.317, 2485.782 420.414, 2487.812 427.455 C 2497.102 459.669, 2527.015 481.476, 2574.400 490.579 C 2625.961 500.485, 2636.974 503.212, 2650.520 509.433 C 2663.849 515.555, 2669.971 523.774, 2669.990 535.572 C 2670.023 555.939, 2655.053 566.280, 2623.500 567.687 C 2584.145 569.442, 2562.478 557.484, 2556.570 530.750 L 2555.962 528 2516.831 528 L 2477.701 528 2478.343 536.750 C 2480.655 568.266, 2496.384 593.324, 2524 609.488 C 2546.616 622.725, 2576.121 628.996, 2615.789 628.999 C 2637.055 629, 2649.187 627.979, 2664.949 624.861 C 2675.684 622.737, 2692.315 617.398, 2699.465 613.779 C 2724.321 601.199, 2740.651 580.954, 2746.684 555.240 C 2749.179 544.608, 2749.175 518.377, 2746.678 509 C 2739.836 483.313, 2720.761 465.079, 2688.150 453.055 C 2677.138 448.995, 2669.082 447.008, 2637.373 440.531 C 2622.593 437.512, 2606.450 433.870, 2601.500 432.438 C 2590.691 429.309, 2577.332 423.223, 2571.994 418.995 C 2562.726 411.655, 2559.562 395.435, 2565.247 384.410 C 2571.502 372.280, 2584.888 365.860, 2607 364.384 C 2623.077 363.311, 2636.316 366.173, 2646.889 373.006 C 2656.138 378.984, 2661.485 387.452, 2663.462 399.250 L 2664.091 403 2703.147 403 L 2742.203 403 2741.547 395.750 C 2739.353 371.527, 2731.740 353.197, 2717.721 338.387 C 2698.903 318.506, 2674.275 307.922, 2637.789 304.035 C 2624.803 302.651, 2596.981 302.907, 2584 304.529 M 2908 303.573 C 2906.625 303.811, 2902.125 304.484, 2898 305.068 C 2832.745 314.304, 2778.564 365.306, 2764.999 430.265 C 2755.572 475.408, 2764.187 522.380, 2788.690 559.423 C 2797.168 572.240, 2816.789 592.068, 2829.500 600.662 C 2856.676 619.036, 2885.126 628.203, 2919.500 629.663 C 3001.367 633.141, 3069.853 582.043, 3087.926 504 C 3094.522 475.514, 3092.937 440.949, 3083.776 413.500 C 3065.143 357.671, 3019.227 317.656, 2960.379 305.960 C 2952.052 304.305, 2944.926 303.721, 2930 303.469 C 2919.275 303.288, 2909.375 303.335, 2908 303.573 M 1796 467 L 1796 625 1834.500 625 L 1873 625 1873 467 L 1873 309 1834.500 309 L 1796 309 1796 467 M 270.373 380.979 C 248.532 386.705, 228.358 403.702, 219.058 424.212 C 214.063 435.228, 212.606 442.300, 212.612 455.500 C 212.617 466.261, 212.928 468.382, 215.619 476.044 C 217.269 480.743, 220.327 487.161, 222.414 490.304 C 230.649 502.711, 244.689 512.237, 259.643 515.564 C 270.797 518.045, 286.708 517.171, 297.814 513.466 C 322.701 505.164, 342.022 484.821, 349.122 459.443 C 351.948 449.346, 352.204 433.524, 349.694 424.159 C 345.074 406.918, 333.357 392.524, 318 385.222 C 313.325 382.999, 307.115 380.690, 304.201 380.090 C 295.848 378.372, 278.586 378.825, 270.373 380.979 M 1246.561 380.591 C 1210.848 388.551, 1185.633 417.604, 1180.913 456.229 C 1177.558 483.688, 1188.687 515.085, 1207.812 532.113 C 1225.250 547.640, 1245.770 554.810, 1269.500 553.669 C 1290.564 552.655, 1304.135 547.240, 1320.846 533.179 C 1340.770 516.415, 1352.527 484.381, 1349.087 456.229 C 1344.677 420.137, 1322.474 392.467, 1289.500 381.972 C 1280.182 379.006, 1257.015 378.261, 1246.561 380.591 M 2265.472 380.468 C 2238.482 386.656, 2218.553 402.605, 2206.998 427.263 C 2195.055 452.748, 2195.351 482.521, 2207.798 507.757 C 2228.472 549.672, 2280.569 566.133, 2324.469 544.622 C 2337.684 538.146, 2348.057 529.184, 2355.888 517.476 C 2365.644 502.889, 2370.014 486.975, 2369.978 466.162 C 2369.950 449.569, 2367.596 438.807, 2361.084 425.501 C 2350.467 403.808, 2332.522 388.537, 2309.872 381.921 C 2300.398 379.154, 2274.849 378.318, 2265.472 380.468 M 2909 380.427 C 2891.626 384.289, 2877.393 392.410, 2865.425 405.290 C 2854.788 416.737, 2848.640 428.353, 2844.407 445 C 2841.542 456.268, 2841.753 478.519, 2844.833 489.933 C 2855.882 530.880, 2890.018 555.922, 2931.771 553.714 C 2945.414 552.992, 2951.956 551.245, 2964.971 544.848 C 2974.158 540.333, 2976.622 538.524, 2985.073 530.101 C 2997.476 517.738, 3004.034 506.423, 3008.608 489.500 C 3011.215 479.853, 3011.290 453.466, 3008.736 444.162 C 2999.586 410.827, 2977.549 388.376, 2946.726 380.986 C 2937.200 378.702, 2918.038 378.418, 2909 380.427 M 836 500 L 836 552 886.250 551.992 C 913.888 551.987, 940.550 551.526, 945.500 550.968 C 983.422 546.688, 1003.657 526.884, 1001.664 496 C 1000.258 474.200, 989.547 460.733, 967.733 453.338 C 953.595 448.545, 945.710 448.012, 888.750 448.006 L 836 448 836 500"
    stroke="none" fill="#fffcfc" fill-rule="evenodd"/>
  <path d="" stroke="none" fill="#fcfcfc" fill-rule="evenodd"/>
</svg>
